<svg xmlns="http://www.w3.org/2000/svg" width="20" height="20" fill="#8a8a8a" viewBox="0 0 16 16">
  <path d="M0 1.146C0 .513.526 0 1.175 0h13.65C15.474 0 16 .513 16 1.146v13.708c0 .633-.526 1.146-1.175 1.146H1.175C.526 16 0 15.487 0 14.854zM4.943 13.5V6.169H2.542V13.5zM3.744 5.168c.837 0 1.358-.554 1.358-1.248-.015-.709-.52-1.248-1.342-1.248S2.4 3.211 2.4 3.92c0 .694.521 1.248 1.327 1.248m4.908 8.332V9.405c0-.219.016-.438.081-.594.178-.438.584-.892 1.265-.892.893 0 1.25.673 1.25 1.659V13.5h2.401V9.302c0-2.248-1.201-3.293-2.803-3.293-1.292 0-1.858.709-2.179 1.207h.03v-1.04H6.296c.03.678 0 7.324 0 7.324z"/>
</svg>
